<?xml version="1.0" standalone="no"?>
<!DOCTYPE svg PUBLIC "-//W3C//DTD SVG 20010904//EN"
 "http://www.w3.org/TR/2001/REC-SVG-20010904/DTD/svg10.dtd">
<svg version="1.0" xmlns="http://www.w3.org/2000/svg"
 width="192.000000pt" height="192.000000pt" viewBox="0 0 192.000000 192.000000"
 preserveAspectRatio="xMidYMid meet">
<g transform="translate(0.000000,192.000000) scale(0.100000,-0.100000)"
fill="#000000" stroke="none">
<path d="M870 1732 c-41 -13 -399 -236 -417 -260 -10 -12 -13 -90 -13 -313 l0
-298 58 -34 c31 -19 73 -44 92 -55 19 -10 97 -56 174 -101 76 -44 145 -81 153
-81 9 0 114 60 234 133 l219 132 0 128 0 128 -30 10 c-34 12 -37 29 -14 84 18
43 21 40 -68 82 l-48 22 0 -178 0 -179 -145 -87 c-79 -48 -150 -85 -157 -82
-7 2 -71 39 -141 81 -71 42 -132 76 -138 76 -5 0 -9 31 -9 69 l0 70 139 82
140 82 3 91 c2 50 2 93 1 95 -2 2 -11 -3 -20 -11 -10 -8 -70 -45 -133 -82 -63
-37 -125 -74 -137 -82 -21 -15 -21 -15 -20 48 l2 64 196 116 c108 64 212 125
232 135 20 10 37 20 37 23 0 5 -109 68 -150 86 -14 6 -32 9 -40 6z m82 -54
c46 -32 59 -48 37 -48 -5 0 -7 -5 -3 -12 4 -7 3 -8 -5 -4 -6 4 -28 -5 -49 -22
-20 -16 -43 -27 -49 -25 -7 3 -13 0 -13 -6 0 -6 -12 -17 -27 -24 -16 -6 -34
-19 -41 -27 -12 -13 -13 -13 -7 0 4 10 2 10 -8 -2 -11 -14 -16 -15 -26 -5 -10
9 -12 9 -9 -2 2 -7 -3 -16 -11 -19 -9 -3 -11 0 -6 8 5 9 4 11 -4 6 -6 -4 -9
-11 -6 -15 6 -11 -113 -84 -125 -76 -5 3 -7 0 -4 -8 10 -27 -14 -28 -63 -1
-57 32 -73 44 -73 55 0 11 86 70 92 63 3 -2 11 2 18 11 15 18 34 20 24 3 -4
-8 -3 -10 2 -5 5 5 7 11 6 14 -5 8 99 73 116 73 7 0 11 4 8 9 -3 5 6 12 19 15
14 4 23 11 20 16 -4 6 1 7 11 3 13 -5 15 -3 9 8 -4 8 -5 11 0 7 4 -4 20 1 34
11 56 39 73 39 133 -1z m-442 -288 c14 -11 32 -20 41 -20 13 0 17 -10 17 -40
0 -22 3 -44 7 -49 3 -5 1 -12 -4 -16 -6 -3 -4 -13 6 -25 12 -14 22 -16 38 -10
13 5 26 6 29 3 3 -4 6 -2 6 4 0 6 17 21 38 34 96 57 172 99 182 99 7 0 11 -19
9 -52 -2 -44 -7 -56 -28 -70 -14 -10 -21 -18 -16 -18 6 0 -12 -12 -40 -25 -27
-14 -56 -23 -64 -20 -9 4 -11 0 -7 -12 4 -10 4 -14 0 -11 -3 4 -26 -6 -50 -23
-24 -17 -49 -27 -56 -23 -7 4 -8 3 -4 -4 4 -7 3 -12 -2 -12 -12 0 -15 -149 -3
-163 5 -7 6 -45 3 -86 -4 -61 -7 -71 -17 -58 -7 10 -19 17 -27 17 -8 0 -28 12
-43 26 -16 15 -35 27 -43 28 -11 2 -13 39 -12 217 2 118 2 240 2 272 0 31 3
57 6 57 4 0 18 -9 32 -20z m769 -147 c23 -20 30 -33 26 -45 -4 -10 -10 -16
-14 -13 -10 6 -7 -27 4 -44 6 -10 4 -12 -6 -7 -8 4 -6 1 5 -6 58 -40 62 -46
48 -68 -8 -12 -9 -19 -4 -16 13 8 9 -171 -5 -185 -8 -8 -13 -7 -18 2 -6 8 -4
10 6 4 8 -5 12 -6 9 -2 -8 9 -25 8 -26 -3 -1 -5 -2 -15 -3 -21 0 -5 -5 -8 -10
-4 -5 3 -16 -2 -24 -10 -9 -8 -20 -15 -26 -15 -6 0 -11 -5 -11 -11 0 -5 -4 -7
-10 -4 -5 3 -10 1 -10 -5 0 -6 -12 -16 -27 -22 -16 -7 -65 -36 -110 -65 -55
-36 -87 -51 -99 -46 -11 4 -15 3 -11 -4 4 -6 -1 -17 -10 -24 -14 -12 -16 -12
-8 1 5 9 0 8 -13 -4 -12 -11 -22 -14 -22 -8 0 7 -7 12 -15 12 -23 0 -88 39
-114 68 -13 15 -20 21 -17 15 11 -21 -9 -15 -37 11 -17 15 -28 20 -31 13 -2
-7 -5 -4 -5 6 -1 9 -6 17 -12 17 -27 0 -43 34 -44 95 0 56 1 61 17 52 9 -6 14
-15 11 -21 -4 -5 1 -7 10 -3 10 4 23 -3 35 -18 15 -19 22 -21 32 -12 10 9 11
9 6 0 -4 -7 -2 -13 4 -13 6 0 8 -5 4 -12 -5 -8 0 -7 11 2 17 14 18 13 12 -4
-7 -17 -6 -17 10 -5 9 8 14 9 10 2 -4 -6 4 -16 21 -22 15 -7 40 -19 56 -27 15
-9 34 -17 41 -18 7 -1 21 -8 31 -16 16 -12 17 -12 7 0 -13 14 -19 39 -7 27 4
-3 21 5 40 19 18 14 38 23 44 19 5 -3 13 1 16 10 4 9 12 14 19 11 6 -2 18 0
26 6 11 8 10 9 -3 4 -10 -3 -18 -1 -18 4 0 6 5 10 11 10 7 0 34 16 61 35 27
20 53 33 59 29 11 -7 39 13 39 29 0 6 -7 2 -15 -9 -8 -10 -15 -14 -15 -8 0 6
7 17 15 24 13 11 15 37 13 151 -2 77 1 139 6 139 5 0 3 7 -4 15 -21 25 3 17
39 -12z"/>
<path d="M514 1485 c-10 -8 -14 -15 -7 -15 6 0 15 5 18 11 4 6 14 8 22 5 8 -3
11 -1 8 4 -8 14 -18 13 -41 -5z"/>
<path d="M520 1460 c-9 -6 -10 -10 -3 -10 6 0 15 5 18 10 8 12 4 12 -15 0z"/>
<path d="M610 1436 c0 -2 7 -7 16 -10 8 -3 12 -2 9 4 -6 10 -25 14 -25 6z"/>
<path d="M783 1305 c0 -8 4 -12 9 -9 5 3 6 10 3 15 -9 13 -12 11 -12 -6z"/>
<path d="M1263 907 c-8 -17 -8 -24 0 -24 7 0 13 11 13 24 2 29 0 29 -13 0z"/>
<path d="M1235 910 c-3 -5 -1 -10 4 -10 6 0 11 5 11 10 0 6 -2 10 -4 10 -3 0
-8 -4 -11 -10z"/>
<path d="M912 734 c10 -10 20 -15 24 -12 3 4 -5 12 -18 18 -22 12 -22 12 -6
-6z"/>
<path d="M1132 1403 c-22 -60 -43 -115 -47 -124 -4 -10 3 -19 21 -28 33 -15
39 -9 64 60 10 30 30 82 44 116 25 63 20 87 -11 61 -15 -11 -16 -11 -10 5 4
11 2 17 -7 17 -7 0 -30 -47 -54 -107z m65 52 c0 -8 -4 -15 -9 -15 -5 0 -7 -4
-4 -8 3 -5 -3 -24 -13 -43 -10 -19 -16 -39 -14 -46 2 -6 -1 -14 -6 -18 -6 -3
-11 -15 -11 -25 0 -13 -5 -18 -15 -13 -14 5 -14 7 0 23 8 9 12 19 9 22 -3 4 2
21 12 40 16 30 21 46 26 86 2 17 25 15 25 -3z"/>
<path d="M1082 1428 c-36 -97 -39 -118 -13 -118 11 0 21 6 21 13 0 6 14 45 30
86 17 40 30 75 30 77 0 2 -10 4 -23 4 -18 0 -26 -11 -45 -62z"/>
<path d="M850 1476 c0 -2 7 -7 16 -10 8 -3 12 -2 9 4 -6 10 -25 14 -25 6z"/>
<path d="M1033 1434 c-7 -19 11 -39 26 -30 16 10 13 33 -4 40 -9 3 -18 -1 -22
-10z"/>
<path d="M1367 1417 c-3 -8 1 -14 8 -14 7 0 11 6 8 14 -3 7 -6 13 -8 13 -2 0
-5 -6 -8 -13z"/>
<path d="M1410 1378 c-5 -13 -28 -68 -50 -123 -36 -92 -38 -101 -23 -112 22
-17 53 -16 53 0 0 11 42 119 86 223 3 6 -7 16 -21 22 -34 16 -34 16 -45 -10z
m28 -38 c-7 -10 -16 -16 -21 -13 -5 3 -2 10 7 15 9 5 13 14 10 20 -4 7 -2 8 4
4 9 -5 9 -12 0 -26z m-20 -69 c-15 -25 -24 -27 -32 -5 -4 10 -2 13 6 8 8 -5 9
-2 5 10 -5 11 -3 15 5 10 8 -5 9 -1 4 12 -7 18 -6 18 9 3 14 -14 15 -20 3 -38z
m-28 -56 c-11 -12 -18 -24 -15 -27 3 -3 -1 -11 -10 -18 -12 -10 -15 -10 -15 2
0 8 5 19 11 25 6 6 12 19 14 29 2 11 4 20 4 21 1 1 8 0 17 -4 13 -5 12 -9 -6
-28z"/>
<path d="M1495 1391 c-3 -5 -2 -12 3 -15 5 -3 9 1 9 9 0 17 -3 19 -12 6z"/>
<path d="M690 1376 c7 -7 13 -7 20 0 6 6 3 10 -10 10 -13 0 -16 -4 -10 -10z"/>
<path d="M1197 1363 c-16 -15 -3 -26 76 -63 72 -34 83 -37 88 -22 5 13 -9 25
-65 54 -73 38 -88 43 -99 31z"/>
<path d="M1442 1245 c-32 -81 -34 -105 -9 -105 14 0 81 166 72 180 -15 24 -32
4 -63 -75z"/>
<path d="M1486 1225 c-7 -20 23 -33 34 -14 5 7 6 17 4 21 -9 13 -32 9 -38 -7z"/>
<path d="M947 1120 c-3 -8 -15 -51 -25 -95 l-20 -80 -21 48 c-12 27 -24 47
-29 45 -4 -2 -39 -19 -79 -38 -40 -19 -75 -41 -78 -49 -4 -10 -2 -11 7 -4 7 6
29 14 48 18 19 4 49 15 66 25 l32 18 27 -64 c28 -67 39 -73 48 -27 3 16 12 53
20 83 l14 55 18 -43 c12 -31 22 -41 34 -38 9 3 48 8 86 12 110 10 112 23 4 24
l-95 0 -26 63 c-16 37 -28 56 -31 47z"/>
<path d="M350 490 c-53 -3 -95 -9 -95 -15 -1 -37 -17 -204 -22 -222 -4 -20 -1
-23 25 -23 28 0 30 2 36 53 l7 52 57 0 c53 0 57 2 60 25 3 24 1 25 -43 22 -61
-5 -73 0 -68 35 4 28 4 28 72 25 64 -3 69 -2 74 20 4 12 3 25 -1 28 -4 3 -50
3 -102 0z m-46 -35 c-4 -8 -11 -15 -16 -15 -6 0 -5 6 2 15 7 8 14 15 16 15 2
0 1 -7 -2 -15z m-17 -41 c-3 -3 -1 -18 4 -32 7 -17 6 -29 -1 -36 -8 -8 -9 -6
-4 8 5 13 4 17 -4 12 -7 -4 -10 4 -10 24 1 16 6 30 11 30 6 0 8 -3 4 -6z"/>
<path d="M487 473 c-5 -27 0 -33 29 -33 15 0 23 7 26 24 4 20 0 25 -23 28 -22
4 -28 0 -32 -19z"/>
<path d="M744 491 c-2 -2 -4 -15 -4 -28 0 -20 5 -23 41 -23 l41 0 -6 -47 c-3
-27 -8 -74 -11 -105 l-6 -58 29 0 29 0 7 83 c11 122 12 125 54 129 31 2 37 7
40 28 l3 25 -106 0 c-59 0 -109 -2 -111 -4z m120 -36 c-4 -8 -10 -15 -15 -15
-5 0 -9 7 -9 15 0 8 7 15 15 15 9 0 12 -6 9 -15z"/>
<path d="M1507 452 c-4 -26 -9 -86 -13 -134 l-7 -88 27 0 c16 0 26 6 27 15 1
8 3 20 4 25 1 6 3 17 4 25 2 27 20 16 41 -25 17 -33 26 -40 50 -40 17 0 30 3
30 6 0 3 -13 25 -28 48 l-29 42 34 43 c18 24 33 46 33 50 0 3 -12 6 -26 6 -19
0 -34 -10 -53 -37 -36 -51 -53 -50 -47 5 13 102 13 99 -15 103 -25 2 -27 -1
-32 -44z m39 -129 c-10 -11 -19 -7 -22 10 -2 15 0 16 12 6 8 -6 12 -14 10 -16z"/>
<path d="M610 450 c0 -23 -4 -30 -20 -30 -18 0 -22 -8 -19 -37 0 -5 7 -7 15
-5 11 2 14 -11 14 -61 0 -36 5 -68 12 -75 7 -7 30 -12 52 -12 37 0 41 3 42 25
2 21 -2 25 -27 25 -31 0 -32 4 -22 63 5 34 8 38 29 33 21 -6 24 -3 24 22 0 25
-3 29 -23 25 -22 -4 -23 -2 -19 26 4 29 2 31 -27 31 -28 0 -31 -3 -31 -30z
m47 -40 c14 0 14 -3 -2 -20 -10 -11 -21 -20 -25 -20 -15 0 -20 31 -7 45 6 7
14 9 15 4 2 -5 11 -9 19 -9z m-7 -153 c11 -5 9 -6 -4 -4 -11 1 -21 9 -23 17
-3 10 -2 11 4 4 4 -6 15 -14 23 -17z"/>
<path d="M1008 422 l-58 -3 0 -33 c0 -18 -3 -61 -6 -95 -7 -61 -7 -61 19 -61
28 0 34 15 39 105 3 38 4 40 35 38 24 -1 34 3 39 19 9 28 -3 33 -68 30z"/>
<path d="M475 343 c-4 -43 -9 -86 -11 -95 -4 -14 1 -18 25 -18 29 0 29 1 36
68 3 37 8 79 10 95 4 24 2 27 -24 27 -29 0 -29 0 -36 -77z"/>
<path d="M1110 398 c0 -21 5 -23 52 -23 32 0 53 -5 55 -12 3 -9 -11 -13 -49
-13 -30 0 -59 -5 -66 -12 -16 -16 -15 -83 1 -97 8 -6 45 -10 84 -10 l70 1 6
76 c8 105 3 112 -83 112 -66 0 -70 -1 -70 -22z m130 -4 c0 -8 -19 -13 -24 -6
-3 5 1 9 9 9 8 0 15 -2 15 -3z m-8 -61 c-6 -2 -9 -10 -6 -15 4 -7 2 -8 -5 -4
-13 9 -5 26 12 25 9 0 8 -2 -1 -6z m-22 -38 c0 -10 -11 -15 -35 -15 -24 0 -35
5 -35 15 0 10 11 15 35 15 24 0 35 -5 35 -15z"/>
<path d="M1319 404 c-7 -9 -15 -46 -17 -82 -6 -81 5 -92 95 -92 61 0 63 1 63
25 0 24 -3 25 -56 25 l-56 0 6 31 c3 17 6 40 6 51 0 17 6 19 53 17 47 -3 52
-1 55 19 3 21 0 22 -66 22 -52 0 -73 -4 -83 -16z"/>
</g>
</svg>
